HIERARCHY
ROOT Hips
{
	OFFSET 0.000000 0.000000 0.000000
	CHANNELS 6 Xposition Yposition Zposition Xrotation Yrotation Zrotation
	JOINT LeftUpLeg_virtual
	{
		OFFSET 0.000000 0.000000 0.000000
		CHANNELS 3 Xrotation Yrotation Zrotation
		JOINT LeftUpLeg
		{
			OFFSET 10.205400 -3.823500 0.155100
			CHANNELS 3 Xrotation Yrotation Zrotation
			JOINT LeftLeg
			{
				OFFSET 0.708757 -12.982077 0.567790
				CHANNELS 3 Xrotation Yrotation Zrotation
				JOINT LeftFoot
				{
					OFFSET -0.708756 -10.717838 -2.184338
					CHANNELS 3 Xrotation Yrotation Zrotation
					JOINT LeftToeBase
					{
						OFFSET 0.108149 -7.191104 7.560241
						CHANNELS 3 Xrotation Yrotation Zrotation
						JOINT LeftToe_End
						{
							OFFSET 0.070230 0.081724 4.490308
							CHANNELS 3 Xrotation Yrotation Zrotation
							End Site
							{
								OFFSET 0 0 0
							}
						}
					}
				}
			}
		}
	}
	JOINT RightUpLeg_virtual
	{
		OFFSET 0.000000 0.000000 0.000000
		CHANNELS 3 Xrotation Yrotation Zrotation
		JOINT RightUpLeg
		{
			OFFSET -10.205400 -3.823500 0.005500
			CHANNELS 3 Xrotation Yrotation Zrotation
			JOINT RightLeg
			{
				OFFSET -0.708756 -12.982134 0.610632
				CHANNELS 3 Xrotation Yrotation Zrotation
				JOINT RightFoot
				{
					OFFSET 0.708754 -10.717769 -1.945823
					CHANNELS 3 Xrotation Yrotation Zrotation
					JOINT RightToeBase
					{
						OFFSET -0.108140 -7.191069 7.372968
						CHANNELS 3 Xrotation Yrotation Zrotation
						JOINT RightToe_End
						{
							OFFSET -0.070227 0.081735 4.479403
							CHANNELS 3 Xrotation Yrotation Zrotation
							End Site
							{
								OFFSET 0 0 0
							}
						}
					}
				}
			}
		}
	}
	JOINT Spine_virtual
	{
		OFFSET 0.000000 0.000000 0.000000
		CHANNELS 3 Xrotation Yrotation Zrotation
		JOINT Spine
		{
			OFFSET 0.000000 6.876099 0.125700
			CHANNELS 3 Xrotation Yrotation Zrotation
			JOINT Spine1
			{
				OFFSET 0.000000 5.730043 0.104720
				CHANNELS 3 Xrotation Yrotation Zrotation
				JOINT Spine1_split
				{
					OFFSET 0.000000 5.730043 0.104720
					CHANNELS 3 Xrotation Yrotation Zrotation
					JOINT Spine2
					{
						OFFSET 0.000000 5.730043 0.104720
						CHANNELS 3 Xrotation Yrotation Zrotation
						JOINT Neck_virtual
						{
							OFFSET 0.000000 0.000000 0.000000
							CHANNELS 3 Xrotation Yrotation Zrotation
							JOINT Neck
							{
								OFFSET 0.000000 10.314075 0.188496
								CHANNELS 3 Xrotation Yrotation Zrotation
								JOINT Head
								{
									OFFSET 0.000000 7.643700 -2.377400
									CHANNELS 3 Xrotation Yrotation Zrotation
									JOINT HeadTop_End
									{
										OFFSET 0.000000 43.788605 -13.619600
										CHANNELS 3 Xrotation Yrotation Zrotation
										End Site
										{
											OFFSET 0 0 0
										}
									}
								}
							}
						}
						JOINT LeftShoulder_virtual
						{
							OFFSET 0.000000 0.000000 0.000000
							CHANNELS 3 Xrotation Yrotation Zrotation
							JOINT LeftShoulder
							{
								OFFSET 2.196100 4.412489 0.087492
								CHANNELS 3 Xrotation Yrotation Zrotation
								JOINT LeftShoulder_split
								{
									OFFSET 2.196100 4.412489 0.087492
									CHANNELS 3 Xrotation Yrotation Zrotation
									JOINT LeftArm
									{
										OFFSET 8.771219 -2.981674 -0.026999
										CHANNELS 3 Xrotation Yrotation Zrotation
										JOINT LeftForeArm
										{
											OFFSET 8.512804 0.000000 -0.000000
											CHANNELS 3 Xrotation Yrotation Zrotation
											JOINT LeftHand
											{
												OFFSET 18.484802 0.000000 -0.000000
												CHANNELS 3 Xrotation Yrotation Zrotation
												End Site
												{
													OFFSET 0 0 0
												}
											}
										}
									}
								}
							}
						}
						JOINT RightShoulder_virtual
						{
							OFFSET 0.000000 0.000000 0.000000
							CHANNELS 3 Xrotation Yrotation Zrotation
							JOINT RightShoulder
							{
								OFFSET -2.196100 4.412496 0.070690
								CHANNELS 3 Xrotation Yrotation Zrotation
								JOINT RightShoulder_split
								{
									OFFSET -2.196100 4.412496 0.070690
									CHANNELS 3 Xrotation Yrotation Zrotation
									JOINT RightArm
									{
										OFFSET -8.771282 -2.981682 -0.094208
										CHANNELS 3 Xrotation Yrotation Zrotation
										JOINT RightForeArm
										{
											OFFSET -8.494598 0.000000 0.000000
											CHANNELS 3 Xrotation Yrotation Zrotation
											JOINT RightHand
											{
												OFFSET -18.483803 0.000000 0.000001
												CHANNELS 3 Xrotation Yrotation Zrotation
												End Site
												{
													OFFSET 0 0 0
												}
											}
										}
									}
								}
							}
						}
					}
				}
			}
		}
	}
}
MOTION
Frames: 4
Frame Time: 0.03333333
-2.045846 37.243797 75.986259 0.000000 0.000000 0.000000 19.223883 6.559656 0.605034 -13.124947 9.667058 13.821735 47.904017 14.677875 3.523255 13.980392 1.086774 2.537364 7.589778 1.695121 -2.356202 0.000000 0.000000 0.000000 18.489758 11.836690 0.230857 -51.367585 -18.090880 -6.567816 39.435217 -3.952053 -18.474454 47.823444 1.791879 0.643998 10.490888 1.679189 -0.477889 0.000000 0.000000 0.000000 18.167453 4.103012 2.065847 0.724819 0.055560 1.075329 -3.995838 -0.243748 0.111199 0.484515 -1.359236 0.164221 0.000000 0.000000 0.000000 -1.652891 -0.105047 -0.768351 -10.611930 0.237647 -7.415034 -25.677475 7.652327 2.352195 0.000000 0.000000 0.000000 -4.669288 0.182504 0.100667 10.688161 -4.927823 31.152302 4.898970 6.948897 -0.732997 -49.896714 -16.803865 12.149132 -40.138624 -43.088423 -8.072291 0.000000 0.000000 0.000000 -3.490269 0.311124 -0.063602 -3.510301 -18.035104 -38.270045 5.134129 2.766191 3.207042 -100.703688 11.815234 44.055905 -33.217703 55.795556 2.624829 0.000000 0.000000 0.000000 
-2.094474 35.757347 79.369850 0.000000 0.000000 0.000000 15.656124 7.678494 0.687287 -12.483741 10.066090 15.614340 48.709036 13.915686 1.245797 9.723323 0.763516 1.716114 6.940055 1.847395 -4.461647 0.000000 0.000000 0.000000 15.252183 13.742187 0.203154 -53.983780 -18.336423 -7.833669 41.432293 -1.204234 -17.883411 42.875126 0.288669 -0.182305 7.017564 1.229794 -0.910598 0.000000 0.000000 0.000000 14.562081 6.210600 1.643110 1.883915 -0.376498 0.501827 -3.947206 -0.772679 0.411656 0.811426 -0.423243 0.200296 0.000000 0.000000 0.000000 -1.809300 -0.409415 -0.898728 -8.334525 0.319889 -6.965775 -27.410983 6.624937 3.301426 0.000000 0.000000 0.000000 -5.041741 -0.141112 0.052474 10.579639 -4.545012 32.326278 4.294389 7.408675 -1.069705 -47.746950 -13.459325 14.773394 -40.938668 -40.884819 -7.176760 0.000000 0.000000 0.000000 -3.623576 0.110124 0.097828 -4.394980 -18.743543 -40.451990 4.890325 2.183581 3.648490 -97.391278 13.937082 39.561549 -30.426095 51.653333 -3.964569 0.000000 0.000000 0.000000 
-2.230320 34.542313 82.480110 0.000000 0.000000 0.000000 11.542624 8.987644 0.526185 -13.509411 11.258304 16.180809 48.508874 12.720350 -0.105721 4.386102 -0.097738 2.304638 5.737173 1.907886 -5.666517 0.000000 0.000000 0.000000 11.583370 15.740308 0.009197 -53.483947 -20.371510 -8.945033 41.490483 0.910706 -16.874559 38.730386 -1.324593 -1.156744 3.999506 0.664869 -1.176284 0.000000 0.000000 0.000000 10.567580 8.298155 0.975485 2.920219 -0.689943 0.311061 -3.759650 -1.466573 0.706744 1.113009 0.128946 0.177978 0.000000 0.000000 0.000000 -2.011469 -0.910163 -0.938447 -5.914975 0.492188 -6.169255 -27.514901 5.424017 4.444486 0.000000 0.000000 0.000000 -5.219348 -0.669614 -0.053360 10.635911 -4.070117 33.511087 3.947080 7.202702 -1.420018 -44.739996 -9.073162 16.694263 -41.392237 -39.341814 -6.340550 0.000000 0.000000 0.000000 -3.724706 -0.327568 0.287825 -4.509226 -18.982142 -41.381538 4.461089 1.386651 3.650864 -92.086851 15.471767 34.804742 -30.401148 49.673828 -6.632645 0.000000 0.000000 0.000000 
-2.433936 33.803528 85.401810 0.000000 0.000000 0.000000 7.675419 10.649774 0.188993 -15.038512 13.048829 15.066192 45.846914 11.131178 -0.131379 -1.563934 -1.396173 3.373515 4.277738 1.887782 -5.819090 0.000000 0.000000 0.000000 7.795489 17.818111 -0.200334 -50.029664 -23.746046 -9.325781 38.511393 2.343391 -15.513750 33.719998 -3.052102 -2.968989 3.928855 0.226310 -0.990472 0.000000 0.000000 0.000000 6.493107 10.209355 0.260515 3.624457 -0.883576 0.434419 -3.529414 -2.199276 0.942296 1.195981 -0.022376 0.140960 0.000000 0.000000 0.000000 -2.237641 -1.519813 -0.894124 -3.073281 0.762785 -5.099852 -25.889924 4.314247 5.665227 0.000000 0.000000 0.000000 -5.262246 -1.315142 -0.157071 10.772091 -3.347885 34.736320 3.794422 6.597166 -1.684971 -41.934247 -4.716357 17.549797 -41.833017 -38.877997 -6.110837 0.000000 0.000000 0.000000 -3.850946 -0.930460 0.478642 -3.932531 -18.867954 -41.029052 4.219959 0.702541 3.302087 -85.852828 15.847058 30.216641 -32.417867 51.703207 -5.588966 0.000000 0.000000 0.000000 
